<?xml version="1.0" encoding="UTF-8"?>
<svg width="160px" height="53px" viewBox="0 0 160 53" version="1.1" xmlns="http://www.w3.org/2000/svg" xmlns:xlink="http://www.w3.org/1999/xlink">
    <!-- Generator: Sketch 52.1 (67048) - http://www.bohemiancoding.com/sketch -->
    <title>logo-footer</title>
    <desc>Created with Sketch.</desc>
    <g id="Page-1" stroke="none" stroke-width="1" fill="none" fill-rule="evenodd">
        <g id="DISEÑO-WEB-TAHONA" transform="translate(-880.000000, -2890.000000)" fill="#FFFFFE">
            <g id="logo-footer" transform="translate(880.000000, 2890.000000)">
                <path d="M0.2048,8.3723 L0.2048,12.8843 L8.0088,12.8843 L8.0088,32.7813 L13.0008,32.7813 L13.0008,12.8843 L20.8418,12.8843 L20.8418,8.3723 L0.2048,8.3723 Z M44.4478,32.7813 L33.5748,7.9283 L31.9108,7.9283 L20.9998,32.7813 L26.3628,32.7813 L27.7308,29.6013 L37.7168,29.6013 L39.0848,32.7813 L44.4478,32.7813 Z M29.5068,25.4953 L32.7238,17.2853 L35.9418,25.4953 L29.5068,25.4953 Z M65.7498,8.3723 L65.7498,17.7293 L54.9508,17.7293 L54.9508,8.3723 L49.9578,8.3723 L49.9578,32.7813 L54.9508,32.7813 L54.9508,22.2413 L65.7498,22.2413 L65.7498,32.7813 L70.7428,32.7813 L70.7428,8.3723 L65.7498,8.3723 Z M84.4418,4.8593 L96.3508,4.8593 L96.3508,0.9393 L84.4418,0.9393 L84.4418,4.8593 Z M81.1868,11.5903 C78.6718,13.9943 77.4148,16.9893 77.4148,20.5773 C77.4148,24.1643 78.6718,27.1603 81.1868,29.6013 C83.7018,32.0053 86.7718,33.2253 90.3588,33.2253 C93.9458,33.2253 97.0158,32.0053 99.5678,29.6013 C102.1198,27.1603 103.3768,24.1643 103.3768,20.5773 C103.3768,16.9893 102.1198,13.9943 99.5678,11.5903 C97.0158,9.1493 93.9458,7.9283 90.3588,7.9283 C86.7718,7.9283 83.7018,9.1493 81.1868,11.5903 Z M90.3958,12.5513 C92.6518,12.5513 94.5008,13.2913 95.9808,14.8073 C97.4968,16.3243 98.2368,18.2473 98.2368,20.5773 C98.2368,22.9073 97.4968,24.8303 95.9808,26.3463 C94.5008,27.8623 92.6518,28.6023 90.3958,28.6023 C88.1028,28.6023 86.2168,27.8623 84.7378,26.3833 C83.2948,24.8673 82.5558,22.9443 82.5558,20.5773 C82.5558,18.2473 83.2948,16.3243 84.7748,14.8073 C86.2538,13.2913 88.1398,12.5513 90.3958,12.5513 Z M125.8778,22.9073 L111.7128,7.9283 L110.0858,7.9283 L110.0858,32.7813 L115.0788,32.7813 L115.0788,18.1363 L129.2058,33.2253 L130.8708,33.2253 L130.8708,8.3723 L125.8778,8.3723 L125.8778,22.9073 Z M159.7948,32.7813 L148.9218,7.9283 L147.2578,7.9283 L136.3478,32.7813 L141.7098,32.7813 L143.0788,29.6013 L153.0638,29.6013 L154.4328,32.7813 L159.7948,32.7813 Z M144.8538,25.4953 L148.0718,17.2853 L151.2888,25.4953 L144.8538,25.4953 Z" id="Fill-21"></path>
                <path d="M40.4335,45.209 C38.5055,45.209 36.7055,46.698 36.7055,49.087 C36.7055,51.54 38.4085,52.986 40.3695,52.986 C42.2975,52.986 44.0975,51.497 44.0975,49.108 C44.0975,46.655 42.3935,45.209 40.4335,45.209 Z M40.2625,45.787 C41.7295,45.787 42.9295,47.148 42.9295,49.269 C42.9295,51.208 41.9015,52.408 40.5085,52.408 C39.0625,52.408 37.8735,51.037 37.8735,48.926 C37.8735,46.998 38.8805,45.787 40.2625,45.787 Z M48.0495,52.847 L49.0675,52.847 L49.0675,49.194 L51.5205,49.194 L51.5205,48.605 L49.0675,48.605 L49.0675,45.98 L52.0565,45.98 L52.0565,45.348 L48.0495,45.348 L48.0495,52.847 Z M56.6355,45.209 C54.7075,45.209 52.9075,46.698 52.9075,49.087 C52.9075,51.54 54.6115,52.986 56.5715,52.986 C58.4995,52.986 60.2995,51.497 60.2995,49.108 C60.2995,46.655 58.5965,45.209 56.6355,45.209 Z M56.4645,45.787 C57.9325,45.787 59.1315,47.148 59.1315,49.269 C59.1315,51.208 58.1035,52.408 56.7105,52.408 C55.2645,52.408 54.0755,51.037 54.0755,48.926 C54.0755,46.998 55.0825,45.787 56.4645,45.787 Z M67.9495,52.847 L67.9495,49.451 L66.9315,49.569 L66.9315,51.508 C66.5455,51.904 65.9565,52.14 65.2495,52.14 C63.8895,52.14 62.4965,50.897 62.4965,48.798 C62.4965,46.891 63.5785,45.798 64.9175,45.798 C65.9355,45.798 66.5355,46.462 66.5995,47.351 L67.7775,47.212 C67.6705,45.991 66.5775,45.209 65.0785,45.209 C63.3645,45.209 61.4575,46.58 61.4575,49.14 C61.4575,51.572 63.0215,52.986 64.6715,52.986 C65.7425,52.986 66.5025,52.472 66.9525,51.722 L66.9525,52.847 L67.9495,52.847 Z M72.5045,45.134 L69.0655,52.847 L69.7615,52.847 L70.7685,50.587 L73.7465,50.587 L74.7215,52.847 L75.8245,52.847 L72.5045,45.134 Z M72.2895,47.191 L73.5115,50.019 L71.0255,50.019 L72.2895,47.191 Z M82.3875,52.847 L80.0515,49.376 C80.8665,49.023 81.4665,48.348 81.4665,47.373 C81.4665,45.927 80.3415,45.348 78.9375,45.348 L77.0315,45.348 L77.0315,52.847 L78.0485,52.847 L78.0485,49.665 C78.3055,49.676 78.4125,49.676 78.4985,49.676 C78.6805,49.676 78.8625,49.665 79.0455,49.644 L81.1665,52.847 L82.3875,52.847 Z M78.6915,45.916 C79.6555,45.916 80.3415,46.419 80.3415,47.459 C80.3415,48.423 79.7095,49.13 78.5095,49.13 C78.4455,49.13 78.2625,49.13 78.0485,49.119 L78.0485,45.916 L78.6915,45.916 Z M86.0185,52.847 L88.2365,52.847 C90.1965,52.847 92.2855,51.561 92.2855,49.044 C92.2855,46.387 90.4215,45.348 88.4075,45.348 L86.0185,45.348 L86.0185,52.847 Z M88.1395,45.916 C90.0685,45.916 91.1175,47.234 91.1175,49.14 C91.1175,51.283 89.8645,52.279 88.2365,52.279 L87.0365,52.279 L87.0365,45.916 L88.1395,45.916 Z M97.1665,45.209 C95.2375,45.209 93.4385,46.698 93.4385,49.087 C93.4385,51.54 95.1415,52.986 97.1015,52.986 C99.0295,52.986 100.8295,51.497 100.8295,49.108 C100.8295,46.655 99.1265,45.209 97.1665,45.209 Z M96.9945,45.787 C98.4625,45.787 99.6625,47.148 99.6625,49.269 C99.6625,51.208 98.6335,52.408 97.2405,52.408 C95.7945,52.408 94.6055,51.037 94.6055,48.926 C94.6055,46.998 95.6125,45.787 96.9945,45.787 Z M106.3575,49.805 C107.8565,49.805 109.3245,49.001 109.3245,47.437 C109.3245,45.959 108.1995,45.348 106.7965,45.348 L104.7825,45.348 L104.7825,52.847 L105.8005,52.847 L105.8005,49.805 L106.3575,49.805 Z M106.5495,45.916 C107.5145,45.916 108.1995,46.452 108.1995,47.523 C108.1995,48.519 107.5675,49.237 106.3675,49.237 L105.8005,49.237 L105.8005,45.916 L106.5495,45.916 Z M112.6075,45.134 L109.1695,52.847 L109.8655,52.847 L110.8725,50.587 L113.8505,50.587 L114.8255,52.847 L115.9285,52.847 L112.6075,45.134 Z M112.3935,47.191 L113.6145,50.019 L111.1295,50.019 L112.3935,47.191 Z M117.1345,52.847 L117.8095,52.847 L117.8095,47.351 L123.2945,53.061 L123.2945,45.348 L122.6195,45.348 L122.6195,50.854 L117.1345,45.134 L117.1345,52.847 Z" id="Fill-23"></path>
            </g>
        </g>
    </g>
</svg>