<?xml version="1.0" encoding="UTF-8"?>
<svg width="380px" height="226px" viewBox="0 0 380 226" version="1.1" xmlns="http://www.w3.org/2000/svg" xmlns:xlink="http://www.w3.org/1999/xlink">
    <defs>
        <polygon id="path-1" points="0 8.2395 60.9129 8.2395 60.9129 34.6815 0 34.6815"></polygon>
    </defs>
    <g id="Page-1" stroke="none" stroke-width="1" fill="none" fill-rule="evenodd">
        <g id="logo" transform="translate(173.000000, 86.000000) rotate(-290.000000) translate(-173.000000, -86.000000) translate(92.000000, -130.000000)">
            <polygon id="Fill-1" fill="#050505" points="112.8573 392.5863 104.8023 391.3263 117.9243 400.6953 114.5313 394.2963 135.3303 378.9873 127.3653 408.9393 153.4203 391.7133 145.5183 416.4273 138.3633 415.3023 152.9163 425.7063 149.1093 418.4973 159.9993 384.4503 133.4133 402.0183 141.5403 371.2653"></polygon>
            <g id="Group-23" transform="translate(0.000000, 2.707200)">
                <path d="M87.3045,397.0368 L77.5755,391.8888 L97.2225,372.2418 C90.3825,372.5028 85.3605,371.0358 82.1565,367.8318 C79.9785,365.6628 78.9255,363.2328 79.0065,360.5598 C79.0785,357.8868 80.6085,355.0608 83.5875,352.0908 L99.0495,336.6198 L97.0425,329.4648 L109.0665,341.4888 L101.9115,339.4818 L87.3045,354.0978 C82.4625,358.9398 81.8505,363.1698 85.4775,366.8058 C87.0435,368.3628 89.1045,369.4428 91.6605,370.0008 C94.2255,370.5858 96.6465,370.7568 98.9325,370.5318 L115.9425,353.5128 L113.9355,346.3578 L125.9685,358.3818 L118.8045,356.3748 L84.1545,391.0248 L87.3045,397.0368 Z" id="Fill-2" fill="#050505"></path>
                <path d="M49.8366,318.0942 L94.2696,308.6532 C100.4526,307.3212 104.4576,308.0232 106.2846,310.7682 C107.0316,311.8932 107.3286,313.0002 107.1666,314.0712 C107.0136,315.1512 106.4376,316.0242 105.4566,316.6812 C104.6016,317.2482 103.7196,317.4462 102.8286,317.2572 C101.9196,317.0772 101.2356,316.6362 100.7496,315.9162 C100.1916,315.0522 100.0656,314.1252 100.3806,313.0902 C100.7046,312.0642 100.7676,311.3982 100.5606,311.0832 C100.0746,310.3632 98.2926,310.3182 95.2056,310.9392 L83.2986,313.5222 L66.1446,342.5652 L67.1526,350.6472 L57.0906,335.5452 L63.3816,339.1542 L77.9976,314.6112 L50.8446,320.3352 L51.7446,327.5352 L42.7626,314.0442 L49.8366,318.0942 Z" id="Fill-4" fill="#050505"></path>
                <path d="M57.1761,274.5531 L44.6841,279.5481 L51.4521,287.3061 C53.8731,290.0061 55.9971,291.6981 57.8421,292.3821 C59.6871,293.0841 61.6941,292.9941 63.8541,292.1301 C65.5641,291.4461 66.8151,290.3391 67.6341,288.8271 C68.4621,287.3061 68.5071,285.6411 67.7871,283.8321 C67.6431,283.4811 67.4811,283.1301 67.2741,282.7791 C67.0761,282.4191 66.8961,282.1311 66.7431,281.8881 C66.5991,281.6631 66.3651,281.3931 66.0321,281.0961 C65.6991,280.7811 65.4921,280.5651 65.3751,280.4301 C65.2671,280.3041 64.9971,280.0701 64.5741,279.7461 C64.1511,279.4221 63.9081,279.2331 63.8271,279.1791 C63.7461,279.1251 63.4491,278.9181 62.9361,278.5761 C62.4141,278.2251 62.1531,278.0361 62.1261,277.9821 L57.1761,274.5531 Z M42.5781,280.3761 L40.6971,281.1231 C34.9191,283.4361 33.0921,287.2251 35.2071,292.4991 C36.0621,294.6411 37.1691,296.1891 38.5281,297.1071 C39.8781,298.0161 41.0841,298.2681 42.1371,297.8451 C42.2901,297.7731 42.6141,297.6201 43.1181,297.3501 C43.6221,297.0981 44.0811,296.8821 44.4861,296.7291 C46.5921,295.8831 48.0051,296.3691 48.7341,298.1781 C49.0311,298.9251 49.0221,299.6721 48.7071,300.4101 C48.3831,301.1481 47.6991,301.7331 46.6461,302.1381 C44.4951,303.0111 41.8671,302.2641 38.7801,299.9151 C35.6841,297.5841 33.6411,295.1541 32.6331,292.6431 C29.7351,285.3621 31.9131,280.2861 39.1941,277.3611 L60.6411,268.8021 L55.2951,263.0781 C55.9611,263.2851 56.7711,263.5461 57.7251,263.8971 C58.6791,264.2481 60.0201,264.8871 61.7661,265.8141 C63.5031,266.7501 64.5291,267.6231 64.8621,268.4151 C65.3301,269.6301 65.1681,270.5571 64.3491,271.1961 C63.5301,271.8441 61.9371,272.6361 59.5881,273.5901 L65.5011,277.6851 C68.3361,279.6831 70.1811,281.7711 71.0451,283.9221 C72.0891,286.5411 72.1431,288.9351 71.2161,291.1131 C70.2801,293.2821 68.4801,294.9111 65.8251,295.9641 C63.3591,296.9451 60.8661,296.8821 58.3281,295.7661 C55.7901,294.6591 53.4591,292.9041 51.3351,290.4921 L42.5781,280.3761 Z" id="Fill-6" fill="#050505"></path>
                <g id="Group-10" transform="translate(0.000000, 234.000000)">
                    <mask id="mask-2" fill="white">
                        <use xlink:href="#path-1"></use>
                    </mask>
                    <g id="Clip-9"></g>
                    <path d="M25.5699,34.6815 L23.9139,27.1575 C17.0649,28.6695 11.6109,28.7415 7.5789,27.3735 C3.5469,25.9785 1.0809,23.2875 0.1989,19.2825 C-0.1161,17.8605 -0.0621,16.4835 0.3609,15.1425 C0.7839,13.8105 1.6569,12.9915 2.9709,12.7035 C3.9249,12.4965 4.7439,12.6225 5.4279,13.0815 C6.1029,13.5315 6.5439,14.1885 6.7239,15.0255 C6.9039,15.8175 6.8229,16.5375 6.4989,17.1945 C6.1749,17.8425 5.7609,18.3555 5.2569,18.7155 C4.7529,19.0755 4.3299,19.5255 3.9789,20.0745 C3.6279,20.6235 3.5289,21.2085 3.6639,21.8385 C4.4559,25.4295 9.8649,26.1135 19.8819,23.9085 L23.0499,23.2065 L21.0339,14.1165 L23.4099,13.5855 L25.4169,22.6845 L55.0809,16.1415 L57.0699,8.2395 L60.9129,25.6455 L55.9539,20.1015 L26.2899,26.6355 L27.9459,34.1505 L25.5699,34.6815 Z" id="Fill-8" fill="#050505" mask="url(#mask-2)"></path>
                </g>
                <path d="M10.1457,229.3416 L18.6057,228.5406 L17.7417,219.2706 L20.1537,219.0366 L21.0267,228.3246 L47.6307,225.8226 C51.3927,225.4716 53.1477,223.9506 52.8957,221.2686 C52.8057,220.2966 52.4457,219.4056 51.8337,218.6046 C51.2127,217.7946 50.6907,217.2276 50.2497,216.9126 C49.8177,216.6066 49.4847,216.4086 49.2687,216.3186 C49.7097,216.3906 50.3487,216.5976 51.1947,216.9486 C52.0317,217.2996 53.0037,218.0016 54.0747,219.0366 C55.1457,220.0806 55.7397,221.2776 55.8657,222.6096 C56.2707,226.9116 53.6517,229.3236 48.0087,229.8546 L21.4047,232.3476 L22.1247,240.0156 L10.1457,229.3416 Z" id="Fill-11" fill="#050505"></path>
                <path d="M21.141,199.8108 C22.968,202.4298 25.695,204.2568 29.304,205.2738 L30.213,189.5778 C30.348,187.2558 30.222,185.5188 29.826,184.3578 C29.439,183.2058 28.476,182.5848 26.964,182.4948 C24.867,182.3778 22.995,183.1788 21.348,184.9338 C19.71,186.6798 18.81,188.9298 18.657,191.6748 C18.486,194.4828 19.323,197.1918 21.141,199.8108 Z M31.716,205.8228 C32.247,205.9128 33.03,205.9848 34.056,206.0298 C39.771,206.3718 44.127,205.2108 47.124,202.5738 C50.112,199.9368 51.732,196.4178 51.984,192.0618 C52.083,190.3878 51.885,188.8038 51.408,187.3098 C50.931,185.8248 50.319,184.6098 49.59,183.6378 C48.861,182.6748 48.123,181.8378 47.385,181.1178 C46.638,180.4068 45.981,179.8578 45.405,179.5068 L44.613,179.0478 C44.946,179.1198 45.351,179.2638 45.855,179.4438 C46.359,179.6418 47.259,180.1368 48.573,180.9468 C49.869,181.7478 51.021,182.6748 52.02,183.7008 C53.019,184.7268 53.883,186.1848 54.612,188.0658 C55.341,189.9468 55.638,192.0258 55.503,194.2938 C55.215,199.4058 53.145,203.4108 49.293,206.3088 C45.45,209.1978 40.725,210.4848 35.118,210.1518 C29.34,209.8188 24.759,207.8568 21.375,204.2478 C17.982,200.6478 16.434,196.3638 16.722,191.3958 C17.001,186.5448 18.639,183.0978 21.618,181.0548 C24.606,179.0028 28.494,178.1208 33.3,178.3998 L31.716,205.8228 Z" id="Fill-13" fill="#050505"></path>
                <path d="M22.6431,167.1156 L22.0761,156.1086 L30.3291,158.1876 L26.6211,151.6626 C25.0281,148.9266 24.4971,146.4786 25.0461,144.3366 C25.7661,141.4476 27.3591,140.3136 29.8251,140.9436 C30.6621,141.1506 31.3011,141.6006 31.7331,142.2936 C32.1741,142.9956 32.2641,143.8056 32.0391,144.7596 C31.7961,145.6956 31.1751,146.4426 30.1761,147.0096 C29.1771,147.5496 28.5651,148.2516 28.3581,149.0886 C27.9621,150.6636 29.4021,153.8946 32.6781,158.7816 L55.0701,164.4156 L60.1821,159.0336 L56.0331,175.5216 L54.0801,168.3486 L26.1981,161.3196 L22.6431,167.1156 Z" id="Fill-15" fill="#050505"></path>
                <polygon id="Fill-17" fill="#050505" points="54.6885 87.3369 80.4375 112.1679 48.7665 109.1799 70.4385 132.5349 35.0505 127.3689 28.5615 132.3099 36.4545 116.2269 36.4995 123.4809 62.2035 127.2339 40.9365 104.3469 71.8065 107.2989 53.2935 89.2719 47.5245 93.6639 54.6255 79.1829"></polygon>
                <path d="M44.4582,63.1233 L48.1572,52.7373 L70.4412,69.3603 C69.1902,62.6283 69.9282,57.4443 72.6462,53.8173 C74.4822,51.3423 76.7322,49.9563 79.3962,49.6503 C82.0512,49.3443 85.0662,50.4513 88.4502,52.9623 L105.9822,66.0573 L112.7862,63.0333 L102.6072,76.6773 L103.5522,69.3063 L87.0012,56.9403 C81.4932,52.8363 77.2092,52.8363 74.1402,56.9493 C72.8082,58.7313 72.0522,60.9273 71.8542,63.5463 C71.6472,66.1653 71.8362,68.5863 72.3942,70.8183 L91.6812,85.2183 L98.4852,82.2033 L88.2972,95.8473 L89.2602,88.4673 L49.9572,59.1363 L44.4582,63.1233 Z" id="Fill-19" fill="#050505"></path>
                <path d="M114.5511,14.0625 L133.2261,55.4625 C135.8451,61.2135 136.0161,65.2725 133.7211,67.6395 C132.7851,68.6205 131.7681,69.1335 130.6881,69.2145 C129.5991,69.2955 128.6271,68.9175 127.7721,68.0895 C127.0341,67.3785 126.6651,66.5685 126.6471,65.6415 C126.6291,64.7325 126.9171,63.9675 127.5201,63.3375 C128.2401,62.5995 129.1221,62.2755 130.1931,62.3835 C131.2641,62.4735 131.9391,62.3835 132.2001,62.1225 C132.7941,61.4925 132.4611,59.7465 131.2011,56.8665 L126.1341,45.7695 L94.1121,35.2035 L86.4261,37.9035 L99.0351,24.8625 L96.8571,31.7835 L123.9381,40.8375 L112.5711,15.5295 L105.7401,17.9415 L116.9901,6.2955 L114.5511,14.0625 Z" id="Fill-21" fill="#050505"></path>
            </g>
        </g>
    </g>
</svg>
