<svg viewBox="0 0 31 38" version="1.1" xmlns="http://www.w3.org/2000/svg" xmlns:xlink="http://www.w3.org/1999/xlink">
    <g id="Symbols" stroke="none" stroke-width="1" fill="none" fill-rule="evenodd">
        <g id="Share" transform="translate(-183.000000, -12.000000)" fill="#000000">
            <g id="Group" transform="translate(45.000000, 12.000000)">
                <path d="M167.26432,17 C166.753037,17 166.342665,17.157227 166.033202,17.471681 C165.723739,17.786135 165.569013,18.2031215 165.569013,18.7226562 L165.569013,32.75 C165.569013,33.2695337 165.407555,33.6865218 165.084638,34.0009763 C164.761716,34.3154313 164.344622,34.4726562 163.833333,34.4726562 L143.166667,34.4726562 C142.65538,34.4726562 142.238283,34.3154313 141.915365,34.0009763 C141.592446,33.6865218 141.43099,33.2695337 141.43099,32.75 L141.43099,18.7226562 C141.43099,18.2031215 141.27626,17.786135 140.966797,17.471681 C140.657333,17.157227 140.246964,17 139.735677,17 C139.19748,17 138.773656,17.157227 138.464193,17.471681 C138.154729,17.786135 138,18.2031215 138,18.7226562 L138,32.75 C138,34.2265698 138.497825,35.4706981 139.49349,36.4824219 C140.489154,37.4941457 141.713534,38 143.166667,38 L163.833333,38 C165.286463,38 166.510845,37.4941457 167.506513,36.4824219 C168.502176,35.4706981 169,34.2265698 169,32.75 L169,18.7226562 C169,18.2031215 168.845269,17.786135 168.535806,17.471681 C168.226343,17.157227 167.802522,17 167.26432,17 Z M148.042254,9.84663635 L152.183095,5.85915552 L152.183095,24.2503937 C152.183095,24.7929098 152.352109,25.2201386 152.690138,25.5320852 C153.028171,25.8440319 153.464785,26 154,26 C154.535215,26 154.971829,25.8440319 155.309862,25.5320852 C155.647891,25.2201386 155.816905,24.7929098 155.816905,24.2503937 L155.816905,5.85915552 L159.957746,9.84663635 C160.126765,10.0365199 160.309857,10.172145 160.507044,10.2535222 C160.704231,10.3348993 160.943663,10.3755853 161.225357,10.3755853 C161.478878,10.3755853 161.704227,10.3348993 161.901414,10.2535222 C162.098595,10.172145 162.295776,10.0365199 162.492958,9.84663635 C162.830991,9.49399852 163,9.08711793 163,8.62597895 C163,8.16483998 162.830991,7.75795939 162.492958,7.40532156 L155.267606,0.48826296 C155.183099,0.4068858 155.09155,0.32550864 154.992959,0.24413148 C154.894363,0.16275432 154.80282,0.122063136 154.718307,0.122063136 C154.549293,0.0406859759 154.338028,0 154.084507,0 C153.830986,0 153.563381,0.0406859759 153.281693,0.122063136 C153.19718,0.203445504 153.105637,0.264474468 153.007041,0.305165652 C152.90845,0.345851628 152.816901,0.4068858 152.732394,0.48826296 L145.507042,7.40532156 C145.169009,7.75795939 145,8.16483998 145,8.62597895 C145,9.08711793 145.169009,9.49399852 145.507042,9.84663635 C145.873238,10.1992742 146.295768,10.3755853 146.774643,10.3755853 C147.253524,10.3755853 147.676054,10.1992742 148.042254,9.84663635 Z" id="Fill-1"></path>
            </g>
        </g>
    </g>
</svg>